<svg xmlns="http://www.w3.org/2000/svg" xmlns:xlink="http://www.w3.org/1999/xlink"><symbol fill="none" viewBox="0 0 21 21" id="icon-eye" xmlns="http://www.w3.org/2000/svg"><g stroke="#D1D1D1" stroke-width="1.5" stroke-linecap="round" stroke-linejoin="round"><path d="M10.5 4.593c-6.563 0-9.188 5.907-9.188 5.907s2.625 5.906 9.188 5.906c6.563 0 9.188-5.906 9.188-5.906S17.063 4.593 10.5 4.593Z"/><path d="M10.5 13.781a3.281 3.281 0 1 0 0-6.562 3.281 3.281 0 0 0 0 6.562Z"/></g></symbol><symbol viewBox="0 0 35 34" id="icon-instagram" xmlns="http://www.w3.org/2000/svg"><path d="M34.744 17c0 9.389-7.611 17-17 17s-17-7.611-17-17 7.611-17 17-17 17 7.611 17 17Z"/><path d="M17.744 7.43c-2.599 0-2.925.01-3.946.057-1.018.046-1.714.208-2.323.445A4.692 4.692 0 0 0 9.78 9.036a4.69 4.69 0 0 0-1.104 1.695c-.237.609-.398 1.304-.445 2.323-.046 1.02-.057 1.347-.057 3.946 0 2.6.01 2.925.057 3.946.047 1.019.208 1.714.445 2.323.245.63.572 1.163 1.104 1.695.532.532 1.066.86 1.695 1.104.609.237 1.305.399 2.323.445 1.021.047 1.347.058 3.946.058 2.6 0 2.925-.011 3.946-.058 1.019-.046 1.715-.208 2.323-.445a4.692 4.692 0 0 0 1.696-1.104 4.692 4.692 0 0 0 1.104-1.695c.236-.609.398-1.304.444-2.323.047-1.02.058-1.347.058-3.946 0-2.6-.011-2.925-.058-3.946-.046-1.019-.208-1.714-.445-2.323a4.692 4.692 0 0 0-1.103-1.695 4.693 4.693 0 0 0-1.696-1.104c-.608-.237-1.304-.399-2.323-.445-1.02-.047-1.347-.058-3.946-.058Zm0 1.724c2.556 0 2.858.01 3.868.056.933.042 1.44.198 1.777.33.447.173.765.38 1.1.715.335.335.543.654.716 1.1.131.338.287.845.33 1.778.046 1.009.055 1.312.055 3.867 0 2.555-.01 2.858-.055 3.867-.043.933-.199 1.44-.33 1.777a2.965 2.965 0 0 1-.716 1.101 2.965 2.965 0 0 1-1.1.716c-.337.131-.844.287-1.777.33-1.01.046-1.312.055-3.868.055-2.555 0-2.858-.01-3.867-.056-.933-.042-1.44-.198-1.777-.33a2.964 2.964 0 0 1-1.1-.715 2.967 2.967 0 0 1-.717-1.1c-.13-.338-.287-.845-.33-1.778-.045-1.009-.055-1.312-.055-3.867 0-2.556.01-2.858.056-3.867.042-.933.198-1.44.33-1.777.173-.447.38-.766.715-1.101a2.966 2.966 0 0 1 1.1-.716c.338-.131.845-.287 1.778-.33 1.009-.045 1.312-.055 3.867-.055Z" fill="#100F0D"/><path d="M17.744 20.19a3.19 3.19 0 1 1 0-6.38 3.19 3.19 0 0 1 0 6.38Zm0-8.105a4.915 4.915 0 1 0 0 9.83 4.915 4.915 0 0 0 0-9.83Zm6.258-.194a1.148 1.148 0 1 1-2.297 0 1.148 1.148 0 0 1 2.297 0Z" fill="#100F0D"/></symbol><symbol viewBox="0 0 512 512" id="icon-search" xmlns="http://www.w3.org/2000/svg"><!--! Font Awesome Pro 6.4.2 by @fontawesome - https://fontawesome.com License - https://fontawesome.com/license (Commercial License) Copyright 2023 Fonticons, Inc.--><path d="M416 208c0 45.9-14.9 88.3-40 122.7l126.6 126.7c12.5 12.5 12.5 32.8 0 45.3s-32.8 12.5-45.3 0L330.7 376c-34.4 25.2-76.8 40-122.7 40C93.1 416 0 322.9 0 208S93.1 0 208 0s208 93.1 208 208zM208 352a144 144 0 1 0 0-288 144 144 0 1 0 0 288z"/></symbol><symbol viewBox="0 0 36 36" id="icon-slider-next" xmlns="http://www.w3.org/2000/svg"><path d="M6.875 32.325v-6.26c0-.06.025-.12.068-.163l12.615-12.53-3.723-1.895V3.938l8.74 4.448 4.551 2.343-4.993 4.97L7.25 32.472c-.141.14-.375.049-.375-.146Z"/></symbol><symbol viewBox="0 0 36 36" id="icon-slider-prev" xmlns="http://www.w3.org/2000/svg"><path d="M29.125 3.675v6.26a.23.23 0 0 1-.068.163l-12.615 12.53 3.723 1.895v7.539l-8.74-4.448-4.551-2.343 4.993-4.97L28.75 3.528c.141-.14.375-.049.375.146Z"/></symbol><symbol viewBox="0 0 14 14" id="icon-star" xmlns="http://www.w3.org/2000/svg"><path d="M6.194 1.101a.9.9 0 0 1 1.614 0l1.521 3.082 3.401.495a.9.9 0 0 1 .5 1.535l-2.462 2.399.581 3.387a.9.9 0 0 1-1.306.949l-3.042-1.6-3.042 1.6a.9.9 0 0 1-1.306-.949l.58-3.387-2.46-2.4a.9.9 0 0 1 .499-1.534l3.4-.495 1.522-3.082Z"/></symbol><symbol viewBox="0 0 34 35" id="icon-telegram" xmlns="http://www.w3.org/2000/svg"><path fill-rule="evenodd" clip-rule="evenodd" d="M34 17.427c0 9.389-7.611 17-17 17s-17-7.611-17-17 7.611-17 17-17 17 7.611 17 17Zm-16.39-4.45c-1.654.688-4.959 2.112-9.915 4.27-.805.32-1.226.634-1.264.94-.065.517.583.721 1.465.998.12.038.244.077.372.119.868.282 2.035.612 2.642.625.55.012 1.165-.215 1.844-.68 4.63-3.127 7.02-4.706 7.17-4.74.106-.024.253-.055.352.034.1.088.09.255.08.3-.065.274-2.608 2.638-3.924 3.862-.41.381-.701.652-.76.714-.134.138-.27.269-.4.395-.807.777-1.412 1.36.033 2.312.694.457 1.25.836 1.804 1.213.605.412 1.209.824 1.99 1.335.199.13.389.266.574.398.704.503 1.337.954 2.119.882.454-.042.923-.47 1.162-1.743.563-3.01 1.67-9.534 1.926-12.222a3.002 3.002 0 0 0-.029-.67.717.717 0 0 0-.242-.46c-.203-.165-.518-.2-.658-.198-.64.012-1.62.353-6.342 2.316Z"/></symbol><symbol viewBox="0 0 10 17" id="icon-tooltip" xmlns="http://www.w3.org/2000/svg"><path d="M3.505 12.7c0-.529.04-1.024.12-1.486a4.34 4.34 0 0 1 .485-1.32c.198-.396.429-.715.693-.957.27-.25.564-.491.88-.726.322-.242.66-.55 1.012-.924.293-.323.487-.649.583-.979.102-.33.154-.686.154-1.067 0-.279-.033-.539-.1-.78a1.56 1.56 0 0 0-.33-.628 1.854 1.854 0 0 0-.89-.616 3.553 3.553 0 0 0-2.134-.044c-.316.095-.58.242-.792.44-.228.19-.396.43-.506.715-.103.279-.15.583-.143.913H.117c.058-.69.234-1.335.528-1.936a3.966 3.966 0 0 1 1.188-1.463 4.27 4.27 0 0 1 1.452-.748A5.46 5.46 0 0 1 4.913.841c.777 0 1.51.121 2.2.363A3.93 3.93 0 0 1 8.85 2.381c.337.381.59.818.759 1.31.176.483.264.985.264 1.506 0 .697-.15 1.342-.451 1.936A6.69 6.69 0 0 1 8.29 8.761a9.394 9.394 0 0 1-.737.704c-.25.205-.48.407-.693.605a2.929 2.929 0 0 0-.528.65c-.198.336-.312.64-.341.912-.03.264-.044.62-.044 1.067H3.505Zm.01 4.3v-2.662h2.432V17H3.516Z"/></symbol><symbol viewBox="0 0 35 34" id="icon-vk" xmlns="http://www.w3.org/2000/svg"><path fill-rule="evenodd" clip-rule="evenodd" d="M17.744 34c9.389 0 17-7.611 17-17s-7.611-17-17-17-17 7.611-17 17 7.611 17 17 17ZM6.482 10.342c.184 8.84 4.604 14.152 12.353 14.152h.44v-5.057c2.847.283 5 2.366 5.864 5.057h4.024c-1.105-4.023-4.01-6.247-5.823-7.097 1.814-1.049 4.364-3.599 4.973-7.055h-3.655c-.794 2.805-3.145 5.355-5.383 5.596v-5.596H15.62v9.803c-2.267-.567-5.129-3.315-5.256-9.803H6.482Z"/></symbol><symbol viewBox="0 0 35 34" id="icon-whats-app" xmlns="http://www.w3.org/2000/svg"><g fill-rule="evenodd" clip-rule="evenodd"><path d="M17.78 24.794h.004c4.34 0 7.871-3.532 7.873-7.873a7.826 7.826 0 0 0-2.304-5.57 7.82 7.82 0 0 0-5.566-2.31c-4.343 0-7.874 3.532-7.876 7.873 0 1.488.415 2.937 1.204 4.19l.187.298-.796 2.905 2.98-.781.288.17a7.86 7.86 0 0 0 4.007 1.098Zm2.705-6.667c.217.08 1.38.652 1.618.77.046.024.089.044.129.064.165.08.277.133.324.213.06.099.06.572-.138 1.125-.197.553-1.143 1.058-1.597 1.126a3.242 3.242 0 0 1-1.491-.094 13.557 13.557 0 0 1-1.35-.499c-2.218-.958-3.717-3.108-4.001-3.515l-.042-.058-.002-.003c-.125-.167-.964-1.287-.964-2.446 0-1.09.535-1.662.782-1.925l.046-.05a.87.87 0 0 1 .631-.296c.158 0 .316.002.454.009h.053c.138 0 .31-.001.48.406l.261.635c.204.495.429 1.043.468 1.122.06.119.099.257.02.415l-.033.068c-.06.12-.103.21-.204.327-.039.046-.08.095-.12.145-.082.1-.164.199-.235.27-.118.118-.242.246-.103.483.138.237.613 1.012 1.316 1.64.757.674 1.414.96 1.747 1.104.065.028.118.05.157.07.236.119.374.099.512-.06.138-.157.592-.69.75-.927.158-.237.315-.198.532-.119Z"/><path d="M17.744 34c9.389 0 17-7.611 17-17s-7.611-17-17-17-17 7.611-17 17 7.611 17 17 17Zm.04-26.558a9.41 9.41 0 0 1 6.7 2.778 9.416 9.416 0 0 1 2.772 6.701c-.002 5.223-4.251 9.473-9.472 9.473h-.004a9.463 9.463 0 0 1-4.527-1.153l-5.02 1.317 1.343-4.909a9.456 9.456 0 0 1-1.265-4.735c.003-5.223 4.252-9.472 9.473-9.472Z"/></g></symbol></svg>