<svg viewBox="0 0 35 34" fill="" xmlns="http://www.w3.org/2000/svg">
<g id="Vector">
<path d="M34.7441 17C34.7441 26.3888 27.133 34 17.7441 34C8.3553 34 0.744141 26.3888 0.744141 17C0.744141 7.61116 8.3553 0 17.7441 0C27.133 0 34.7441 7.61116 34.7441 17Z" fill=""/>
<path d="M17.7443 7.42932C15.145 7.42932 14.8191 7.44035 13.7982 7.48691C12.7795 7.53338 12.0838 7.69519 11.475 7.93174C10.8457 8.17633 10.312 8.5036 9.7799 9.03565C9.24782 9.5677 8.92055 10.1015 8.67599 10.7309C8.43938 11.3396 8.27763 12.0353 8.2311 13.054C8.18454 14.0748 8.17354 14.4008 8.17354 17C8.17354 19.5992 8.18454 19.9252 8.2311 20.946C8.27763 21.9647 8.43938 22.6604 8.67599 23.2691C8.92058 23.8985 9.24785 24.4322 9.7799 24.9643C10.312 25.4964 10.8457 25.8237 11.475 26.0683C12.0838 26.3048 12.7795 26.4666 13.7982 26.5131C14.8191 26.5597 15.145 26.5707 17.7443 26.5707C20.3435 26.5707 20.6694 26.5597 21.6902 26.5131C22.7089 26.4666 23.4046 26.3048 24.0134 26.0683C24.6427 25.8237 25.1765 25.4964 25.7086 24.9643C26.2406 24.4322 26.5679 23.8985 26.8125 23.2691C27.049 22.6604 27.2108 21.9647 27.2573 20.946C27.3039 19.9252 27.3149 19.5992 27.3149 17C27.3149 14.4008 27.3039 14.0748 27.2573 13.054C27.2108 12.0353 27.049 11.3396 26.8125 10.7309C26.5679 10.1015 26.2406 9.5677 25.7086 9.03565C25.1765 8.5036 24.6427 8.17633 24.0134 7.93174C23.4046 7.69519 22.7089 7.53338 21.6902 7.48691C20.6694 7.44035 20.3435 7.42932 17.7443 7.42932ZM17.7443 9.15376C20.2997 9.15376 20.6024 9.16353 21.6116 9.20957C22.5447 9.25211 23.0515 9.40803 23.3887 9.5391C23.8355 9.71273 24.1543 9.92011 24.4892 10.255C24.8241 10.5899 25.0315 10.9088 25.2051 11.3555C25.3362 11.6927 25.4921 12.1995 25.5346 13.1326C25.5807 14.1418 25.5905 14.4445 25.5905 17C25.5905 19.5555 25.5807 19.8582 25.5346 20.8674C25.4921 21.8005 25.3362 22.3073 25.2051 22.6445C25.0315 23.0913 24.8241 23.4101 24.4892 23.745C24.1543 24.0799 23.8355 24.2873 23.3887 24.4609C23.0515 24.592 22.5447 24.7479 21.6116 24.7904C20.6026 24.8365 20.2999 24.8462 17.7442 24.8462C15.1886 24.8462 14.8859 24.8365 13.8768 24.7904C12.9437 24.7479 12.4369 24.592 12.0997 24.4609C11.653 24.2873 11.3341 24.0799 10.9993 23.745C10.6644 23.4101 10.457 23.0912 10.2833 22.6445C10.1523 22.3073 9.99637 21.8005 9.9538 20.8674C9.90775 19.8582 9.89798 19.5555 9.89798 17C9.89798 14.4445 9.90775 14.1418 9.9538 13.1326C9.99637 12.1995 10.1523 11.6927 10.2833 11.3555C10.457 10.9087 10.6644 10.5899 10.9992 10.255C11.3341 9.92011 11.653 9.71273 12.0997 9.5391C12.4369 9.40803 12.9437 9.25211 13.8768 9.20957C14.886 9.16353 15.1888 9.15376 17.7443 9.15376Z" fill="#100F0D"/>
<path d="M17.7444 20.1903C15.9824 20.1903 14.5541 18.762 14.5541 17.0001C14.5541 15.2381 15.9824 13.8098 17.7444 13.8098C19.5063 13.8098 20.9346 15.2381 20.9346 17.0001C20.9346 18.762 19.5063 20.1903 17.7444 20.1903ZM17.7444 12.0854C15.03 12.0854 12.8297 14.2857 12.8297 17.0001C12.8297 19.7144 15.03 21.9147 17.7444 21.9147C20.4587 21.9147 22.659 19.7144 22.659 17.0001C22.659 14.2857 20.4587 12.0854 17.7444 12.0854ZM24.0017 11.8912C24.0017 12.5255 23.4875 13.0397 22.8532 13.0397C22.2189 13.0397 21.7047 12.5255 21.7047 11.8912C21.7047 11.2569 22.2189 10.7427 22.8532 10.7427C23.4875 10.7427 24.0017 11.2569 24.0017 11.8912Z" fill="#100F0D"/>
</g>
</svg>
