<svg viewBox="0 0 34 35" fill="" xmlns="http://www.w3.org/2000/svg">
<path fill-rule="evenodd" clip-rule="evenodd" d="M34 17.427C34 26.8158 26.3888 34.427 17 34.427C7.61116 34.427 0 26.8158 0 17.427C0 8.03816 7.61116 0.427002 17 0.427002C26.3888 0.427002 34 8.03816 34 17.427ZM17.6092 12.9774C15.9557 13.6652 12.651 15.0886 7.69519 17.2478C6.89044 17.5678 6.46887 17.8809 6.4305 18.187C6.36564 18.7044 7.01352 18.9081 7.89577 19.1855C8.01577 19.2233 8.14011 19.2624 8.26759 19.3038C9.13558 19.586 10.3032 19.916 10.9102 19.9292C11.4608 19.941 12.0753 19.7141 12.7537 19.2482C17.3841 16.1225 19.7744 14.5427 19.9244 14.5086C20.0303 14.4846 20.177 14.4544 20.2764 14.5427C20.3758 14.6311 20.3661 14.7984 20.3555 14.8433C20.2913 15.1169 17.7482 17.4812 16.4321 18.7048C16.0218 19.0862 15.7308 19.3568 15.6713 19.4186C15.538 19.557 15.4022 19.688 15.2716 19.8138C14.4653 20.5912 13.8605 21.1741 15.3051 22.1261C15.9993 22.5835 16.5548 22.9618 17.109 23.3392C17.7142 23.7514 18.3179 24.1625 19.099 24.6745C19.298 24.8049 19.488 24.9404 19.6731 25.0724C20.3774 25.5745 21.0102 26.0256 21.792 25.9537C22.2463 25.9119 22.7155 25.4847 22.9538 24.2108C23.517 21.2001 24.624 14.6767 24.8798 11.9886C24.9022 11.7531 24.874 11.4517 24.8514 11.3194C24.8287 11.1871 24.7814 10.9986 24.6094 10.859C24.4058 10.6938 24.0913 10.6589 23.9507 10.6614C23.3113 10.6726 22.3303 11.0138 17.6092 12.9774Z" fill=""/>
</svg>
