<svg viewBox="0 0 35 34" fill="" xmlns="http://www.w3.org/2000/svg">
<path id="Subtract" fill-rule="evenodd" clip-rule="evenodd" d="M17.7441 34C27.133 34 34.7441 26.3888 34.7441 17C34.7441 7.61116 27.133 0 17.7441 0C8.3553 0 0.744141 7.61116 0.744141 17C0.744141 26.3888 8.3553 34 17.7441 34ZM6.48206 10.3417C6.66622 19.1817 11.0862 24.4942 18.8353 24.4942H19.2746V19.4367C22.1221 19.7201 24.2752 21.8026 25.1394 24.4942H29.1629C28.0579 20.4709 25.1536 18.2467 23.3402 17.3967C25.1536 16.3484 27.7036 13.7984 28.3127 10.3417H24.6577C23.8643 13.1467 21.513 15.6967 19.2746 15.9376V10.3417H15.6195V20.1451C13.3528 19.5784 10.4912 16.8301 10.3637 10.3417H6.48206Z" fill=""/>
</svg>
