<svg viewBox="0 0 35 34" fill="" xmlns="http://www.w3.org/2000/svg">
<g id="Subtract">
<path fill-rule="evenodd" clip-rule="evenodd" d="M17.7809 24.7939H17.784C22.1235 24.7939 25.6554 21.262 25.6571 16.9207C25.6579 14.8171 24.8398 12.839 23.3534 11.3509C21.8668 9.86265 19.8901 9.04265 17.7872 9.0419C13.4444 9.0419 9.91253 12.5735 9.91079 16.9144C9.91017 18.4021 10.3264 19.8508 11.1146 21.1043L11.3017 21.4022L10.5064 24.3075L13.4862 23.5258L13.7737 23.6965C14.9825 24.4138 16.3681 24.7934 17.7809 24.7939ZM20.4853 18.1273C20.7023 18.2064 21.8659 18.7789 22.1026 18.8974C22.1488 18.9205 22.1919 18.9413 22.2319 18.9606C22.3971 19.0404 22.5086 19.0943 22.5562 19.1738C22.6154 19.2725 22.6154 19.7464 22.4182 20.2994C22.2209 20.8522 21.2753 21.3568 20.8206 21.4247C20.4128 21.4857 19.8968 21.5111 19.3299 21.3309C18.9861 21.2219 18.5452 21.0763 17.9806 20.8324C15.762 19.8744 14.2627 17.7243 13.9789 17.3174C13.959 17.2889 13.9451 17.2689 13.9373 17.2585L13.9354 17.256C13.8102 17.089 12.9709 15.9692 12.9709 14.8101C12.9709 13.72 13.5063 13.1485 13.7528 12.8854C13.7697 12.8674 13.7853 12.8508 13.7992 12.8356C14.0162 12.5987 14.2726 12.5395 14.4304 12.5395C14.5882 12.5395 14.7461 12.5409 14.884 12.5478C14.9011 12.5486 14.9188 12.5485 14.9371 12.5484C15.075 12.5477 15.247 12.5467 15.4166 12.9541C15.4818 13.1109 15.5774 13.3435 15.6781 13.5887C15.8817 14.0845 16.1067 14.6323 16.1463 14.7115C16.2055 14.83 16.2449 14.9681 16.166 15.1262C16.1542 15.1498 16.1433 15.1722 16.1328 15.1935C16.0735 15.3145 16.03 15.4035 15.9294 15.521C15.8901 15.5669 15.8494 15.6164 15.8088 15.6659C15.7271 15.7653 15.6454 15.8648 15.5743 15.9357C15.4558 16.0537 15.3325 16.1817 15.4706 16.4187C15.6086 16.6557 16.0836 17.4307 16.7872 18.0583C17.5436 18.733 18.201 19.0181 18.5342 19.1626C18.5992 19.1908 18.6519 19.2137 18.6906 19.233C18.9272 19.3516 19.0653 19.3318 19.2034 19.1738C19.3414 19.0158 19.795 18.4827 19.9528 18.2458C20.1106 18.0089 20.2684 18.0483 20.4853 18.1273Z" fill=""/>
<path fill-rule="evenodd" clip-rule="evenodd" d="M17.7441 34C27.133 34 34.7441 26.3888 34.7441 17C34.7441 7.61116 27.133 0 17.7441 0C8.3553 0 0.744141 7.61116 0.744141 17C0.744141 26.3888 8.3553 34 17.7441 34ZM17.784 7.44206C20.318 7.44308 22.6963 8.42956 24.4847 10.22C26.2731 12.0105 27.2574 14.3904 27.2565 16.9214C27.2543 22.1442 23.0046 26.3936 17.7841 26.3936H17.7802C16.1948 26.3931 14.6371 25.9954 13.2535 25.2407L8.23206 26.5579L9.57583 21.6494C8.74691 20.2128 8.31074 18.5833 8.31143 16.9138C8.31354 11.6911 12.5629 7.44206 17.784 7.44206Z" fill=""/>
</g>
</svg>
