<svg width="191" height="54" viewBox="0 0 191 54" fill="none" xmlns="http://www.w3.org/2000/svg">
<path fill-rule="evenodd" clip-rule="evenodd" d="M72.6777 47.0514H80.9425L83.5944 44.3626L84.5429 40.5708H88.8368L98.0897 31.1782L86.901 31.1565L93.1086 6.28564H82.9514L58.7968 30.6341L63.8528 40.5708H74.3071L72.6777 47.0514ZM69.1458 31.1339L79.2312 20.857L76.6443 31.1339H69.1458Z" fill="#F2F1F1"/>
<path fill-rule="evenodd" clip-rule="evenodd" d="M14.4804 47.0514H22.7453L25.3972 44.3626L26.3457 40.5708H30.6396L39.8924 31.1782L28.7037 31.1565L34.9113 6.28564H24.7542L0.599519 30.6341L5.65551 40.5708H16.1099L14.4804 47.0514ZM10.9486 31.1339L21.0339 20.857L18.4471 31.1339H10.9486Z" fill="#F2F1F1"/>
<path d="M21.9828 53.1795H32.992C33.0984 53.1795 33.2019 53.1361 33.2782 53.0592L47.0692 39.1765L50.9243 46.7513H64.1823L55.8359 30.3515L85.3326 0.65882C85.5788 0.410976 85.418 0 85.0748 0L74.0656 0C73.9591 0 73.8557 0.0434876 73.7794 0.120369L51.741 22.3052L48.4089 15.758H35.1509L42.9742 31.1302L21.725 52.5207C21.4788 52.7686 21.6396 53.1795 21.9828 53.1795Z" fill="#F2F1F1"/>
<path d="M180.93 46.7593L190.673 7.99229C191.689 3.94972 188.633 0.02951 184.465 0.0279656L99.5158 0C99.1968 0 98.9905 0.337049 99.1356 0.621099L105.648 13.3704L97.6882 45.2355C96.6789 49.2758 99.734 53.1894 103.899 53.191L172.647 53.2165C176.562 53.2179 179.976 50.5564 180.93 46.7593Z" fill="#C31117"/>
<path fill-rule="evenodd" clip-rule="evenodd" d="M144.502 12.4978L136.866 42.9633C136.263 45.3722 134.07 47.0934 131.604 47.0934H109.713C106.385 47.0934 104.017 44.0289 104.831 40.7782L112.466 10.3127C113.07 7.90384 115.263 6.18255 117.729 6.18255H139.621C142.948 6.18255 145.317 9.24712 144.502 12.4978ZM121.295 16.1056H133.318L128.039 37.1703H116.015L121.295 16.1056Z" fill="white"/>
<path d="M151.826 47.0933H142.259C142.038 47.0933 141.88 46.889 141.934 46.6723L152.012 6.45786C152.052 6.29727 152.199 6.18252 152.363 6.18252H161.93C162.152 6.18252 162.31 6.38685 162.256 6.60357L157.691 24.8096L176.088 6.28971C176.156 6.221 176.248 6.18213 176.343 6.18213H186.182C186.488 6.18213 186.632 6.54962 186.412 6.77106L166.395 26.8987L176.393 46.5784C176.51 46.8104 176.332 47.0929 176.068 47.0929H165.013C164.885 47.0929 164.77 47.023 164.713 46.9106L156.316 30.3048L152.177 46.818C152.136 46.9786 151.99 47.0933 151.826 47.0933Z" fill="white"/>
</svg>
