<svg width="140" height="40" viewBox="0 0 140 40" fill="none" xmlns="http://www.w3.org/2000/svg">
<path fill-rule="evenodd" clip-rule="evenodd" d="M53.2616 34.4819H59.3185L61.262 32.5114L61.9571 29.7325H65.1039L71.8849 22.8491L63.6852 22.8332L68.2345 4.60645H60.7908L43.0889 22.4504L46.7942 29.7325H54.4558L53.2616 34.4819ZM50.6733 22.8166L58.0644 15.2851L56.1686 22.8166H50.6733Z" fill="#F2F1F1"/>
<path fill-rule="evenodd" clip-rule="evenodd" d="M10.6112 34.4819H16.6682L18.6116 32.5114L19.3067 29.7325H22.4535L29.2345 22.8491L21.0348 22.8332L25.5841 4.60645H18.1404L0.438509 22.4504L4.14382 29.7325H11.8054L10.6112 34.4819ZM8.02288 22.8166L15.414 15.2851L13.5182 22.8166H8.02288Z" fill="#F2F1F1"/>
<path d="M16.1099 38.9729H24.178C24.256 38.9729 24.3318 38.9411 24.3878 38.8847L34.4946 28.7107L37.3198 34.262H47.036L40.9194 22.2433L62.5362 0.48282C62.7166 0.301186 62.5987 0 62.3472 0L54.2791 0C54.201 0 54.1253 0.0318701 54.0693 0.0882128L37.9183 16.3465L35.4764 11.5484H25.7602L31.4936 22.814L15.9209 38.4901C15.7405 38.6718 15.8583 38.9729 16.1099 38.9729Z" fill="#F2F1F1"/>
<path d="M132.596 35.1465L139.736 6.00739C140.48 2.9688 138.241 0.0221811 135.186 0.0210202L72.9308 0C72.697 0 72.5459 0.253342 72.6522 0.466847L77.4247 10.0498L71.5914 34.0011C70.8518 37.038 73.0907 39.9797 76.1427 39.9808L126.525 40C129.394 40.0011 131.897 38.0005 132.596 35.1465Z" fill="#C31117"/>
<path fill-rule="evenodd" clip-rule="evenodd" d="M105.898 9.15926L100.302 31.4861C99.8594 33.2514 98.2522 34.5128 96.4453 34.5128H80.402C77.9636 34.5128 76.2278 32.267 76.8248 29.8847L82.4201 7.55788C82.8626 5.79252 84.4698 4.53107 86.2767 4.53107H102.321C104.759 4.53107 106.495 6.77696 105.898 9.15926ZM88.89 11.8032H97.7013L93.8325 27.2407H85.0209L88.89 11.8032Z" fill="#F2F1F1"/>
<path d="M111.265 34.5128H104.254C104.092 34.5128 103.976 34.3631 104.016 34.2042L111.401 4.73283C111.431 4.61514 111.538 4.53105 111.659 4.53105H118.67C118.833 4.53105 118.948 4.68079 118.909 4.83962L115.563 18.182L129.045 4.6096C129.095 4.55925 129.163 4.53076 129.233 4.53076H136.443C136.668 4.53076 136.773 4.80008 136.612 4.96236L121.942 19.713L129.269 34.1354C129.355 34.3054 129.224 34.5125 129.031 34.5125H120.929C120.836 34.5125 120.751 34.4612 120.71 34.3789L114.555 22.2092L111.522 34.311C111.493 34.4287 111.385 34.5128 111.265 34.5128Z" fill="#F2F1F1"/>
</svg>
