<svg width="64" height="64" viewBox="0 0 64 64" fill="none" xmlns="http://www.w3.org/2000/svg">
<path d="M28.4163 28.4167V39.1667M28.4163 28.4167H17.6663M28.4163 28.4167H39.1663M28.4163 28.4167V17.6667M60.6663 60.6667L46.1538 46.1542M46.1538 46.1542C50.249 42.0481 52.7954 36.6502 53.3599 30.8786C53.9244 25.1069 52.4722 19.3179 49.2502 14.4962C46.0282 9.67439 41.2355 6.11759 35.687 4.43068C30.1386 2.74378 24.1772 3.03093 18.8166 5.24331C15.3912 6.6638 12.3234 8.8261 9.83403 11.5745C7.34465 14.323 5.49562 17.5892 4.42007 21.138C3.34451 24.6868 3.06918 28.43 3.6139 32.098C4.15863 35.766 5.50985 39.2675 7.57029 42.3506C9.63073 45.4337 12.3491 48.0217 15.5298 49.9281C18.7104 51.8345 22.2742 53.0119 25.9646 53.3757C29.6549 53.7394 33.38 53.2804 36.8716 52.0317C40.3633 50.783 43.5347 48.7757 46.1574 46.1542H46.1538Z" stroke="white" stroke-width="5" stroke-linecap="round" stroke-linejoin="round"/>
</svg>
